<svg width="47" height="46" viewBox="0 0 47 46" fill="none" xmlns="http://www.w3.org/2000/svg">
<path d="M11.1184 21.3132C2.14837 21.9457 2.14837 34.9982 11.1184 35.6307H14.7985" stroke="#640EF1" stroke-width="3" stroke-miterlimit="10" stroke-linecap="round" stroke-linejoin="round"/>
<path d="M11.2144 21.3133C5.06189 4.19744 31.0134 -2.64505 33.9843 15.3333C42.2834 16.3875 45.6377 27.4466 39.351 32.9475C37.4344 34.6916 34.9618 35.6499 32.3743 35.6308H32.2018" stroke="#640EF1" stroke-width="3" stroke-miterlimit="10" stroke-linecap="round" stroke-linejoin="round"/>
<path d="M33.0834 31.6825C33.0834 33.1008 32.7767 34.4424 32.2017 35.6308C32.0484 35.9758 31.876 36.3016 31.6843 36.6083C30.036 39.3875 26.9884 41.2658 23.5001 41.2658C20.0117 41.2658 16.9642 39.3875 15.3159 36.6083C15.1242 36.3016 14.9518 35.9758 14.7985 35.6308C14.2235 34.4424 13.9167 33.1008 13.9167 31.6825C13.9167 26.3925 18.2101 22.0991 23.5001 22.0991C28.7901 22.0991 33.0834 26.3925 33.0834 31.6825Z" stroke="#640EF1" stroke-width="3" stroke-miterlimit="10" stroke-linecap="round" stroke-linejoin="round"/>
<path d="M20.51 31.6825L22.4075 33.58L26.49 29.8042" stroke="#640EF1" stroke-width="3" stroke-linecap="round" stroke-linejoin="round"/>
</svg>
