<svg width="47" height="46" viewBox="0 0 47 46" fill="none" xmlns="http://www.w3.org/2000/svg">
<path d="M18.9001 38.3333H28.1001C35.7667 38.3333 38.8334 35.2666 38.8334 27.6V18.4C38.8334 10.7333 35.7667 7.66663 28.1001 7.66663H18.9001C11.2334 7.66663 8.16675 10.7333 8.16675 18.4V27.6C8.16675 35.2666 11.2334 38.3333 18.9001 38.3333Z" stroke="#640EF1" stroke-width="3" stroke-linecap="round" stroke-linejoin="round"/>
<path d="M20.6251 32.5833H26.3751C31.1667 32.5833 33.0834 30.6666 33.0834 25.875V20.125C33.0834 15.3333 31.1667 13.4166 26.3751 13.4166H20.6251C15.8334 13.4166 13.9167 15.3333 13.9167 20.125V25.875C13.9167 30.6666 15.8334 32.5833 20.6251 32.5833Z" stroke="#640EF1" stroke-width="3" stroke-linecap="round" stroke-linejoin="round"/>
<path d="M15.8525 7.66671V3.83337" stroke="#640EF1" stroke-width="3" stroke-linecap="round" stroke-linejoin="round"/>
<path d="M23.5 7.66671V3.83337" stroke="#640EF1" stroke-width="3" stroke-linecap="round" stroke-linejoin="round"/>
<path d="M31.1667 7.66671V3.83337" stroke="#640EF1" stroke-width="3" stroke-linecap="round" stroke-linejoin="round"/>
<path d="M38.8333 15.3334H42.6666" stroke="#640EF1" stroke-width="3" stroke-linecap="round" stroke-linejoin="round"/>
<path d="M38.8333 23H42.6666" stroke="#640EF1" stroke-width="3" stroke-linecap="round" stroke-linejoin="round"/>
<path d="M38.8333 30.6666H42.6666" stroke="#640EF1" stroke-width="3" stroke-linecap="round" stroke-linejoin="round"/>
<path d="M31.1667 38.3334V42.1667" stroke="#640EF1" stroke-width="3" stroke-linecap="round" stroke-linejoin="round"/>
<path d="M23.5193 38.3334V42.1667" stroke="#640EF1" stroke-width="3" stroke-linecap="round" stroke-linejoin="round"/>
<path d="M15.8525 38.3334V42.1667" stroke="#640EF1" stroke-width="3" stroke-linecap="round" stroke-linejoin="round"/>
<path d="M4.33325 15.3334H8.16659" stroke="#640EF1" stroke-width="3" stroke-linecap="round" stroke-linejoin="round"/>
<path d="M4.33325 23H8.16659" stroke="#640EF1" stroke-width="3" stroke-linecap="round" stroke-linejoin="round"/>
<path d="M4.33325 30.6666H8.16659" stroke="#640EF1" stroke-width="3" stroke-linecap="round" stroke-linejoin="round"/>
<path d="M23.5 18.5917L21.6984 21.735C21.2959 22.425 21.6217 23 22.4267 23H24.5734C25.3784 23 25.7042 23.575 25.3017 24.265L23.5 27.4083" stroke="#640EF1" stroke-width="3" stroke-linecap="round" stroke-linejoin="round"/>
</svg>
