<svg width="46" height="46" viewBox="0 0 46 46" fill="none" xmlns="http://www.w3.org/2000/svg">
<path d="M11.5 11.9791V15.8125" stroke="#640EF1" stroke-width="3" stroke-linecap="round" stroke-linejoin="round"/>
<path d="M42.1666 23V17.25C42.1666 7.66665 38.3333 3.83331 28.75 3.83331H17.25C7.66665 3.83331 3.83331 7.66665 3.83331 17.25V28.75C3.83331 38.3333 7.66665 42.1666 17.25 42.1666H23" stroke="#640EF1" stroke-width="3" stroke-linecap="round" stroke-linejoin="round"/>
<path d="M19.1667 11.9791V15.8125" stroke="#640EF1" stroke-width="3" stroke-linecap="round" stroke-linejoin="round"/>
<path d="M11.5 30.6666V34.5" stroke="#640EF1" stroke-width="3" stroke-linecap="round" stroke-linejoin="round"/>
<path d="M19.1667 30.6666V34.5" stroke="#640EF1" stroke-width="3" stroke-linecap="round" stroke-linejoin="round"/>
<path d="M26.8333 13.8959H34.5" stroke="#640EF1" stroke-width="3" stroke-linecap="round" stroke-linejoin="round"/>
<path d="M3.83331 23H42.1666" stroke="#640EF1" stroke-width="3" stroke-linecap="round" stroke-linejoin="round"/>
<path d="M41.3233 38.9658C40.25 40.825 38.2375 42.0708 35.9375 42.0708C32.5067 42.0708 30.3983 38.6208 30.3983 38.6208M30.5325 32.7558C31.6058 30.8775 33.6183 29.6316 35.9375 29.6316C40.0967 29.6316 42.1667 33.0816 42.1667 33.0816M42.1667 29.2291V33.0625H38.3333M34.2316 38.6016H30.3983V42.1666" stroke="#640EF1" stroke-width="3" stroke-linecap="round" stroke-linejoin="round"/>
</svg>
