<svg width="25" height="24" viewBox="0 0 25 24" fill="none" xmlns="http://www.w3.org/2000/svg">
<path d="M21.5 7.75H3.5C3.09 7.75 2.75 7.41 2.75 7C2.75 6.59 3.09 6.25 3.5 6.25H21.5C21.91 6.25 22.25 6.59 22.25 7C22.25 7.41 21.91 7.75 21.5 7.75Z" fill="#080C2E"/>
<path d="M21.5 12.75H3.5C3.09 12.75 2.75 12.41 2.75 12C2.75 11.59 3.09 11.25 3.5 11.25H21.5C21.91 11.25 22.25 11.59 22.25 12C22.25 12.41 21.91 12.75 21.5 12.75Z" fill="#080C2E"/>
<path d="M21.5 17.75H3.5C3.09 17.75 2.75 17.41 2.75 17C2.75 16.59 3.09 16.25 3.5 16.25H21.5C21.91 16.25 22.25 16.59 22.25 17C22.25 17.41 21.91 17.75 21.5 17.75Z" fill="#080C2E"/>
</svg>
