<svg width="139" height="34" viewBox="0 0 139 34" fill="none" xmlns="http://www.w3.org/2000/svg">
<g clip-path="url(#clip0_20_1043)">
<path d="M40.5962 23.8776H50.5076V20.8923H44.1189V9.6474H40.5962V23.8776Z" fill="#111852"/>
<path d="M56.3799 21.8874C54.9668 21.8874 54.2304 20.6534 54.2304 18.8025C54.2304 16.9516 54.9668 15.6977 56.3799 15.6977C57.793 15.6977 58.5493 16.9516 58.5493 18.8025C58.5493 20.6534 57.793 21.8874 56.3799 21.8874ZM56.3998 24.1961C59.6837 24.1961 61.8332 21.8675 61.8332 18.8025C61.8332 15.7375 59.6837 13.4089 56.3998 13.4089C53.1358 13.4089 50.9465 15.7375 50.9465 18.8025C50.9465 21.8675 53.1358 24.1961 56.3998 24.1961Z" fill="#111852"/>
<path d="M67.5173 27.4004C69.0299 27.4004 70.3633 27.062 71.2589 26.2659C72.0749 25.5295 72.6123 24.415 72.6123 22.8825V13.6876H69.5075V14.7822H69.4677C68.8707 13.9264 67.9551 13.389 66.6018 13.389C64.0742 13.389 62.3228 15.4987 62.3228 18.4841C62.3228 21.6087 64.4523 23.3204 66.7411 23.3204C67.975 23.3204 68.7512 22.8228 69.3483 22.1461H69.4279V23.1611C69.4279 24.3951 68.8508 25.1116 67.4775 25.1116C66.4028 25.1116 65.8654 24.6538 65.6863 24.1165H62.5417C62.8601 26.246 64.711 27.4004 67.5173 27.4004ZM67.4974 20.9122C66.2833 20.9122 65.4872 19.917 65.4872 18.3846C65.4872 16.8322 66.2833 15.837 67.4974 15.837C68.8508 15.837 69.5672 16.9914 69.5672 18.3646C69.5672 19.7976 68.9105 20.9122 67.4974 20.9122Z" fill="#111852"/>
<path d="M78.9964 21.8874C77.5833 21.8874 76.8469 20.6534 76.8469 18.8025C76.8469 16.9516 77.5833 15.6977 78.9964 15.6977C80.4094 15.6977 81.1657 16.9516 81.1657 18.8025C81.1657 20.6534 80.4094 21.8874 78.9964 21.8874ZM79.0163 24.1961C82.3002 24.1961 84.4499 21.8675 84.4499 18.8025C84.4499 15.7375 82.3002 13.4089 79.0163 13.4089C75.7523 13.4089 73.563 15.7375 73.563 18.8025C73.563 21.8675 75.7523 24.1961 79.0163 24.1961Z" fill="#111852"/>
<path d="M85.3969 23.8776H88.641V13.6876H85.3969V23.8776ZM85.3969 12.2745H88.641V9.6474H85.3969V12.2745Z" fill="#111852"/>
<path d="M90.0482 27.2411H93.2923V22.8228H93.3321C93.969 23.6786 94.9044 24.1961 96.218 24.1961C98.8849 24.1961 100.656 22.0864 100.656 18.7826C100.656 15.7176 99.0043 13.389 96.2976 13.389C94.9044 13.389 93.9093 14.006 93.2127 14.9215H93.153V13.6876H90.0482V27.2411ZM95.3821 21.6884C93.9889 21.6884 93.1928 20.5539 93.1928 18.902C93.1928 17.2501 93.9093 15.9963 95.3224 15.9963C96.7155 15.9963 97.3723 17.1506 97.3723 18.902C97.3723 20.6335 96.616 21.6884 95.3821 21.6884Z" fill="#111852"/>
<path d="M105.939 24.1961C108.606 24.1961 110.576 23.0417 110.576 20.8126C110.576 18.2054 108.466 17.7477 106.675 17.4491C105.381 17.2103 104.227 17.1108 104.227 16.3943C104.227 15.7574 104.844 15.4589 105.64 15.4589C106.536 15.4589 107.153 15.7375 107.272 16.653H110.257C110.098 14.6429 108.546 13.389 105.66 13.389C103.252 13.389 101.262 14.5036 101.262 16.653C101.262 19.0413 103.152 19.519 104.924 19.8175C106.277 20.0564 107.511 20.1559 107.511 21.0714C107.511 21.7282 106.894 22.0864 105.919 22.0864C104.844 22.0864 104.167 21.5888 104.048 20.5738H100.983C101.082 22.8228 102.953 24.1961 105.939 24.1961Z" fill="#111852"/>
<path d="M114.982 24.1761C116.395 24.1761 117.291 23.6189 118.027 22.6238H118.087V23.8776H121.191V13.6876H117.947V19.3797C117.947 20.5937 117.271 21.4296 116.156 21.4296C115.121 21.4296 114.624 20.8126 114.624 19.6981V13.6876H111.399V20.3748C111.399 22.6437 112.633 24.1761 114.982 24.1761Z" fill="#111852"/>
<path d="M122.603 23.8776H125.847V18.1656C125.847 16.9516 126.444 16.0958 127.459 16.0958C128.434 16.0958 128.892 16.7326 128.892 17.8273V23.8776H132.136V18.1656C132.136 16.9516 132.713 16.0958 133.748 16.0958C134.723 16.0958 135.181 16.7326 135.181 17.8273V23.8776H138.425V17.2501C138.425 14.9613 137.271 13.389 134.962 13.389C133.649 13.389 132.554 13.9463 131.758 15.1803H131.718C131.201 14.0856 130.186 13.389 128.852 13.389C127.379 13.389 126.404 14.0856 125.767 15.1405H125.708V13.6876H122.603V23.8776Z" fill="#111852"/>
<path fill-rule="evenodd" clip-rule="evenodd" d="M7.44492 3.22706C6.25852 4.05663 5.1857 5.03745 4.25439 6.14155C8.06015 5.78823 12.8952 6.36516 18.5087 9.17193C24.5032 12.1691 29.3302 12.2704 32.6895 11.6224C32.3847 10.6995 32.0009 9.81254 31.5464 8.96934C27.7008 9.37494 22.7708 8.83807 17.0253 5.9654C13.3769 4.14118 10.1608 3.38972 7.44492 3.22706ZM29.3 5.77191C26.2631 2.37883 21.8498 0.243469 16.9377 0.243469C15.4952 0.243469 14.0956 0.427656 12.7613 0.77377C14.5684 1.26686 16.4882 1.98824 18.5087 2.99852C22.7153 5.10176 26.347 5.77896 29.3 5.77191ZM33.4078 14.8619C29.3493 15.6633 23.745 15.4987 17.0253 12.1388C10.7431 8.9977 5.74302 9.03726 2.37077 9.78667C2.19671 9.82531 2.02674 9.86595 1.86088 9.90824C1.41937 10.8684 1.06694 11.8782 0.814072 12.9267C1.08415 12.8545 1.36324 12.786 1.65118 12.7219C5.7423 11.8128 11.5227 11.8523 18.5087 15.3453C24.791 18.4864 29.7911 18.4469 33.1634 17.6975C33.2789 17.6718 33.3928 17.6453 33.5047 17.6179C33.517 17.3565 33.5231 17.0933 33.5231 16.8288C33.5231 16.1633 33.484 15.507 33.4078 14.8619ZM32.9632 21.118C28.9441 21.8207 23.5031 21.551 17.0253 18.3122C10.7431 15.1711 5.74302 15.2107 2.37077 15.9601C1.62223 16.1263 0.948859 16.3289 0.354847 16.5428C0.353227 16.6379 0.352417 16.7333 0.352417 16.8288C0.352417 25.9887 7.77793 33.4142 16.9377 33.4142C24.6144 33.4142 31.0729 28.1988 32.9632 21.118Z" fill="#111852"/>
</g>
<defs>
<clipPath id="clip0_20_1043">
<rect width="138.488" height="34" fill="white" transform="translate(0.268311)"/>
</clipPath>
</defs>
</svg>
