<svg width="142" height="34" viewBox="0 0 142 34" fill="none" xmlns="http://www.w3.org/2000/svg">
<g clip-path="url(#clip0_20_1054)">
<path d="M43.2789 24.3168H53.1903V21.3314H46.8017V10.0865H43.2789V24.3168Z" fill="#640EF1"/>
<path d="M59.0625 22.3266C57.6494 22.3266 56.9131 21.0926 56.9131 19.2417C56.9131 17.3908 57.6494 16.1369 59.0625 16.1369C60.4756 16.1369 61.2319 17.3908 61.2319 19.2417C61.2319 21.0926 60.4756 22.3266 59.0625 22.3266ZM59.0824 24.6353C62.3663 24.6353 64.5158 22.3067 64.5158 19.2417C64.5158 16.1767 62.3663 13.8481 59.0824 13.8481C55.8184 13.8481 53.6292 16.1767 53.6292 19.2417C53.6292 22.3067 55.8184 24.6353 59.0824 24.6353Z" fill="#640EF1"/>
<path d="M70.1999 27.8395C71.7125 27.8395 73.046 27.5012 73.9416 26.7051C74.7576 25.9687 75.2949 24.8541 75.2949 23.3216V14.1267H72.1902V15.2214H72.1504C71.5533 14.3656 70.6378 13.8282 69.2844 13.8282C66.7568 13.8282 65.0054 15.9378 65.0054 18.9232C65.0054 22.0479 67.1349 23.7595 69.4237 23.7595C70.6577 23.7595 71.4339 23.2619 72.0309 22.5853H72.1105V23.6003C72.1105 24.8342 71.5334 25.5507 70.1601 25.5507C69.0854 25.5507 68.548 25.093 68.3689 24.5556H65.2243C65.5427 26.6852 67.3937 27.8395 70.1999 27.8395ZM70.18 21.3513C68.966 21.3513 68.1699 20.3562 68.1699 18.8237C68.1699 17.2713 68.966 16.2762 70.18 16.2762C71.5334 16.2762 72.2499 17.4305 72.2499 18.8038C72.2499 20.2368 71.5931 21.3513 70.18 21.3513Z" fill="#640EF1"/>
<path d="M81.679 22.3266C80.2659 22.3266 79.5295 21.0926 79.5295 19.2417C79.5295 17.3908 80.2659 16.1369 81.679 16.1369C83.092 16.1369 83.848 17.3908 83.848 19.2417C83.848 21.0926 83.092 22.3266 81.679 22.3266ZM81.6989 24.6353C84.9824 24.6353 87.1319 22.3067 87.1319 19.2417C87.1319 16.1767 84.9824 13.8481 81.6989 13.8481C78.4349 13.8481 76.2456 16.1767 76.2456 19.2417C76.2456 22.3067 78.4349 24.6353 81.6989 24.6353Z" fill="#640EF1"/>
<path d="M88.0797 24.3168H91.3238V14.1267H88.0797V24.3168ZM88.0797 12.7137H91.3238V10.0865H88.0797V12.7137Z" fill="#640EF1"/>
<path d="M92.7311 27.6803H95.9752V23.2619H96.015C96.6519 24.1177 97.5873 24.6352 98.9008 24.6352C101.568 24.6352 103.339 22.5256 103.339 19.2217C103.339 16.1568 101.687 13.8282 98.9804 13.8282C97.5873 13.8282 96.5921 14.4452 95.8956 15.3607H95.8359V14.1267H92.7311V27.6803ZM98.0649 22.1275C96.6718 22.1275 95.8757 20.9931 95.8757 19.3412C95.8757 17.6893 96.5922 16.4354 98.0052 16.4354C99.3984 16.4354 100.055 17.5897 100.055 19.3412C100.055 21.0727 99.2989 22.1275 98.0649 22.1275Z" fill="#640EF1"/>
<path d="M108.621 24.6352C111.288 24.6352 113.258 23.4809 113.258 21.2518C113.258 18.6446 111.148 18.1868 109.357 17.8883C108.063 17.6495 106.909 17.5499 106.909 16.8335C106.909 16.1966 107.526 15.898 108.322 15.898C109.218 15.898 109.835 16.1767 109.954 17.0922H112.94C112.78 15.082 111.228 13.8282 108.342 13.8282C105.934 13.8282 103.944 14.9427 103.944 17.0922C103.944 19.4805 105.834 19.9581 107.606 20.2567C108.959 20.4955 110.193 20.595 110.193 21.5105C110.193 22.1673 109.576 22.5256 108.601 22.5256C107.526 22.5256 106.849 22.028 106.73 21.013H103.665C103.765 23.2619 105.635 24.6352 108.621 24.6352Z" fill="#640EF1"/>
<path d="M117.665 24.6154C119.078 24.6154 119.973 24.0581 120.71 23.063H120.769V24.3168H123.874V14.1268H120.63V19.8189C120.63 21.0329 119.953 21.8688 118.839 21.8688C117.804 21.8688 117.306 21.2518 117.306 20.1373V14.1268H114.082V20.814C114.082 23.0829 115.316 24.6154 117.665 24.6154Z" fill="#640EF1"/>
<path d="M125.286 24.3168H128.53V18.6048C128.53 17.3907 129.127 16.5349 130.142 16.5349C131.117 16.5349 131.575 17.1718 131.575 18.2664V24.3168H134.819V18.6048C134.819 17.3907 135.396 16.5349 136.431 16.5349C137.406 16.5349 137.864 17.1718 137.864 18.2664V24.3168H141.108V17.6893C141.108 15.4005 139.954 13.8282 137.645 13.8282C136.332 13.8282 135.237 14.3855 134.441 15.6194H134.401C133.884 14.5248 132.868 13.8282 131.535 13.8282C130.062 13.8282 129.087 14.5248 128.45 15.5796H128.39V14.1267H125.286V24.3168Z" fill="#640EF1"/>
<path fill-rule="evenodd" clip-rule="evenodd" d="M17.4255 33.4388C26.5855 33.4388 34.0109 26.0132 34.0109 16.8534C34.0109 7.69358 26.5855 0.268066 17.4255 0.268066C8.26572 0.268066 0.84021 7.69358 0.84021 16.8534C0.84021 26.0132 8.26572 33.4388 17.4255 33.4388ZM19.9855 13.0824C21.3992 11.6686 21.3992 9.37638 19.9855 7.96256C18.5717 6.54876 16.2795 6.54876 14.8657 7.96256C13.4519 9.37638 13.4519 11.6686 14.8657 13.0824L17.4255 15.6423L19.9855 13.0824ZM21.1966 19.4133C22.6105 20.8272 24.9026 20.8272 26.3165 19.4133C27.7302 17.9995 27.7302 15.7073 26.3165 14.2935C24.9026 12.8798 22.6105 12.8798 21.1966 14.2935L18.6368 16.8535L21.1966 19.4133ZM19.9855 25.7443C21.3992 24.3305 21.3992 22.0383 19.9855 20.6245L17.4255 18.0646L14.8657 20.6245C13.4519 22.0383 13.4519 24.3305 14.8657 25.7443C16.2795 27.1581 18.5717 27.1581 19.9855 25.7443ZM8.53468 19.4133C7.12091 17.9995 7.12091 15.7073 8.53468 14.2935C9.94853 12.8798 12.2407 12.8798 13.6545 14.2935L16.2144 16.8535L13.6545 19.4133C12.2407 20.8272 9.94853 20.8272 8.53468 19.4133Z" fill="#640EF1"/>
</g>
<defs>
<clipPath id="clip0_20_1054">
<rect width="140.976" height="34" fill="white" transform="translate(0.756104)"/>
</clipPath>
</defs>
</svg>
