<svg width="142" height="34" viewBox="0 0 142 34" fill="none" xmlns="http://www.w3.org/2000/svg">
<g clip-path="url(#clip0_20_1065)">
<path d="M43.7377 23.3339H53.6491V20.3486H47.2604V9.1037H43.7377V23.3339Z" fill="#FFD15A"/>
<path d="M59.5211 21.3437C58.1081 21.3437 57.3717 20.1098 57.3717 18.2589C57.3717 16.4079 58.1081 15.1541 59.5211 15.1541C60.9342 15.1541 61.6905 16.4079 61.6905 18.2589C61.6905 20.1098 60.9342 21.3437 59.5211 21.3437ZM59.541 23.6524C62.8249 23.6524 64.9744 21.3238 64.9744 18.2589C64.9744 15.1939 62.8249 12.8653 59.541 12.8653C56.277 12.8653 54.0878 15.1939 54.0878 18.2589C54.0878 21.3238 56.277 23.6524 59.541 23.6524Z" fill="#FFD15A"/>
<path d="M70.6586 26.8567C72.1712 26.8567 73.5047 26.5183 74.4003 25.7222C75.2163 24.9858 75.7537 23.8713 75.7537 22.3388V13.1439H72.6489V14.2385H72.6091C72.012 13.3827 71.0965 12.8453 69.7431 12.8453C67.2155 12.8453 65.4641 14.955 65.4641 17.9404C65.4641 21.065 67.5937 22.7767 69.8825 22.7767C71.1164 22.7767 71.8926 22.2791 72.4897 21.6024H72.5693V22.6174C72.5693 23.8514 71.9921 24.5679 70.6188 24.5679C69.5441 24.5679 69.0067 24.1101 68.8276 23.5728H65.683C66.0015 25.7023 67.8524 26.8567 70.6586 26.8567ZM70.6387 20.3685C69.4247 20.3685 68.6286 19.3733 68.6286 17.8408C68.6286 16.2885 69.4247 15.2933 70.6387 15.2933C71.9921 15.2933 72.7086 16.4477 72.7086 17.8209C72.7086 19.2539 72.0518 20.3685 70.6387 20.3685Z" fill="#FFD15A"/>
<path d="M82.1376 21.3437C80.7245 21.3437 79.9881 20.1098 79.9881 18.2589C79.9881 16.4079 80.7245 15.1541 82.1376 15.1541C83.5507 15.1541 84.307 16.4079 84.307 18.2589C84.307 20.1098 83.5507 21.3437 82.1376 21.3437ZM82.1575 23.6524C85.4414 23.6524 87.5909 21.3238 87.5909 18.2589C87.5909 15.1939 85.4414 12.8653 82.1575 12.8653C78.8935 12.8653 76.7042 15.1939 76.7042 18.2589C76.7042 21.3238 78.8935 23.6524 82.1575 23.6524Z" fill="#FFD15A"/>
<path d="M88.538 23.3339H91.7821V13.1439H88.538V23.3339ZM88.538 11.7308H91.7821V9.1037H88.538V11.7308Z" fill="#FFD15A"/>
<path d="M93.1902 26.6974H96.4343V22.2791H96.4741C97.111 23.1349 98.0464 23.6524 99.3599 23.6524C102.027 23.6524 103.798 21.5427 103.798 18.2389C103.798 15.1739 102.146 12.8453 99.4395 12.8453C98.0464 12.8453 97.0513 13.4623 96.3547 14.3778H96.295V13.1439H93.1902V26.6974ZM98.524 21.1447C97.1309 21.1447 96.3348 20.0102 96.3348 18.3583C96.3348 16.7064 97.0513 15.4526 98.4643 15.4526C99.8575 15.4526 100.514 16.6069 100.514 18.3583C100.514 20.0898 99.758 21.1447 98.524 21.1447Z" fill="#FFD15A"/>
<path d="M109.08 23.6524C111.747 23.6524 113.717 22.498 113.717 20.2689C113.717 17.6617 111.607 17.204 109.816 16.9054C108.522 16.6666 107.368 16.5671 107.368 15.8506C107.368 15.2137 107.985 14.9152 108.781 14.9152C109.677 14.9152 110.294 15.1938 110.413 16.1093H113.399C113.239 14.0992 111.687 12.8453 108.801 12.8453C106.393 12.8453 104.403 13.9599 104.403 16.1093C104.403 18.4976 106.293 18.9753 108.065 19.2738C109.418 19.5127 110.652 19.6122 110.652 20.5277C110.652 21.1845 110.035 21.5427 109.06 21.5427C107.985 21.5427 107.308 21.0451 107.189 20.0301H104.124C104.224 22.2791 106.094 23.6524 109.08 23.6524Z" fill="#FFD15A"/>
<path d="M118.124 23.6325C119.537 23.6325 120.432 23.0752 121.169 22.0801H121.228V23.334H124.333V13.1439H121.089V18.836C121.089 20.0501 120.412 20.886 119.298 20.886C118.263 20.886 117.765 20.269 117.765 19.1545V13.1439H114.541V19.8311C114.541 22.1 115.775 23.6325 118.124 23.6325Z" fill="#FFD15A"/>
<path d="M125.744 23.3339H128.988V17.6219C128.988 16.4079 129.585 15.5521 130.6 15.5521C131.575 15.5521 132.033 16.1889 132.033 17.2836V23.3339H135.277V17.6219C135.277 16.4079 135.854 15.5521 136.889 15.5521C137.864 15.5521 138.322 16.1889 138.322 17.2836V23.3339H141.566V16.7064C141.566 14.4176 140.412 12.8453 138.103 12.8453C136.79 12.8453 135.695 13.4026 134.899 14.6366H134.859C134.342 13.5419 133.327 12.8453 131.993 12.8453C130.52 12.8453 129.545 13.5419 128.908 14.5968H128.849V13.1439H125.744V23.3339Z" fill="#FFD15A"/>
<path fill-rule="evenodd" clip-rule="evenodd" d="M17.8843 33.2851C27.0442 33.2851 34.4697 25.8596 34.4697 16.6998C34.4697 7.53997 27.0442 0.114441 17.8843 0.114441C8.72446 0.114441 1.29895 7.53997 1.29895 16.6998C1.29895 25.8596 8.72446 33.2851 17.8843 33.2851ZM23.0584 7.8406C23.3102 6.94599 22.4421 6.41699 21.6492 6.98186L10.581 14.8668C9.72118 15.4793 9.85643 16.6998 10.7842 16.6998H13.6988V16.6772H19.3791L14.7507 18.3103L12.7103 25.559C12.4584 26.4536 13.3265 26.9826 14.1195 26.4177L25.1876 18.5329C26.0475 17.9203 25.9121 16.6998 24.9844 16.6998H20.5646L23.0584 7.8406Z" fill="#FFD15A"/>
</g>
<defs>
<clipPath id="clip0_20_1065">
<rect width="140.976" height="34" fill="white" transform="translate(0.731689)"/>
</clipPath>
</defs>
</svg>
